<?xml version="1.0" encoding="utf-8"?>
<!-- Generator: Adobe Illustrator 25.0.1, SVG Export Plug-In . SVG Version: 6.00 Build 0)  -->
<svg version="1.0" id="Layer_1" xmlns="http://www.w3.org/2000/svg" xmlns:xlink="http://www.w3.org/1999/xlink" x="0px" y="0px"
	 viewBox="0 0 924 641.1" style="enable-background:new 0 0 924 641.1;" xml:space="preserve">
<style type="text/css">
	.st0{fill:#FF1204;}
</style>
<path d="M207.3,290.2h-51l-5.3,19h2.3c7.8-12.5,10.5-16.1,17.6-16.1h5.4l-10.3,49.2c-1,4.9-2.5,5.4-9.3,6.1l-0.5,2.6h26.1l0.6-2.6
	c-6-0.6-7.9-1-6.8-6.1l10.2-49.2h6.3c7.1,0,5.6,3.6,7.7,16.1h2.2L207.3,290.2z"/>
<path d="M237.9,345.4c-0.8,0-1.2-0.4-1.2-1.3c0.1-1.3,0.4-2.5,0.8-3.7l6.6-25.3c0.3-1.3,0.5-2.7,0.5-4c0-4-1.5-6.4-5.8-6.4
	c-8.2,0-17.7,11.5-22.8,21.4l10.7-42.9h-1.3l-14.9,3.5l-0.3,1.4l5.5,2.7l-14.8,60.2h9.3l3.1-12.4c3.8-15.3,15.5-27.6,20.4-27.6
	c1.1,0,1.5,0.6,1.5,1.8c0,0.9-0.2,1.9-0.4,2.8l-6.1,22.5c-0.7,2.4-1.1,4.9-1.2,7.4c0,3.8,2.1,6.4,5.9,6.4c4.7,0,8.2-3.7,13.6-11.7
	l-1.4-1.1C241.7,343.6,239.5,345.4,237.9,345.4L237.9,345.4z"/>
<path d="M284,313.5c0-4.8-3.3-8.7-10.7-8.7c-13.8,0-25.4,15.9-25.4,31.1c0,9.6,5.3,16,14.1,16c7.5,0,13.3-4.3,18.8-12.5l-1.6-1.3
	c-4.2,5.4-8.2,8.2-13,8.2c-5.6,0-8.9-4.4-8.9-12.2c0-1,0.1-2.2,0.2-3.2C271.1,328.1,284,324.4,284,313.5L284,313.5z M271.9,307.6
	c3,0,4.2,2.2,4.2,5c0,8.5-6.1,13.2-18.4,16.2C259.2,318.3,265.1,307.5,271.9,307.6L271.9,307.6z"/>
<path d="M317.8,298.9c1-4.9,2.1-5.4,8.4-6.1l0.6-2.6h-24.5l-0.5,2.6c5.5,0.7,7,1,5.9,6.1l-9.1,43.3c-0.9,4.9-2.1,5.4-8.5,6.1
	l-0.6,2.6H314l0.6-2.6c-5.6-0.7-7.1-1-6-6.1L317.8,298.9L317.8,298.9z"/>
<path d="M355.5,345.4c-0.8,0-1.2-0.4-1.2-1.3c0.1-1.3,0.4-2.5,0.8-3.7l6.6-25.3c0.3-1.3,0.5-2.7,0.5-4c0-4-1.5-6.4-5.8-6.4
	c-8.2,0-17.7,11.6-22.9,21.4l5.7-21.4h-1.3l-14.8,3.7l-0.3,1.3l5,2.9l-9.5,38.3h9.3l3.1-12.4c3.8-15.3,15.5-27.6,20.4-27.6
	c1.1,0,1.5,0.6,1.5,1.8c-0.1,0.9-0.2,1.9-0.5,2.8l-6.1,22.5c-0.7,2.4-1.1,4.9-1.2,7.4c0,3.8,2.1,6.4,5.9,6.4
	c4.7,0,8.2-3.7,13.6-11.7L363,339C359.4,343.6,357.2,345.4,355.5,345.4L355.5,345.4z"/>
<path d="M402.3,345.4c-0.8,0-1.2-0.4-1.2-1.3c0.1-1.3,0.4-2.5,0.8-3.7l13.9-57.2h-1.2l-15,3.5l-0.2,1.4l5.5,2.7l-4.2,16.9
	c-2.2-2.1-4.4-2.9-7.9-2.9c-13.3,0-27,16.4-27,34.2c0,8,3.4,12.9,9.3,12.9c7,0,15.4-10.2,20.5-21.3c-1.5,4.6-3.4,12.4-3.4,14.9
	c0,3.9,2,6.4,5.7,6.4c4.7,0,8.2-3.7,13.6-11.7l-1.5-1.1C406.2,343.6,404,345.4,402.3,345.4L402.3,345.4z M379,345.1
	c-2.8,0-3.8-3-3.8-7.4c0-13.5,8.4-30.4,18.4-30.4c2.8,0,5.2,1.7,6.2,4.2C394.8,332.1,385.2,345.1,379,345.1z"/>
<path d="M476.2,339c-3.8,4.6-6,6.4-7.5,6.4c-0.8,0-1.2-0.4-1.2-1.3c0.1-1.3,0.4-2.5,0.7-3.7l6.3-26.1l3.1-10.1h-2l-7,4.2
	c-2.3-2.5-5.6-3.8-9-3.6c-13.4,0-26.6,16.4-26.6,34.2c0,8,3.3,12.9,9.2,12.9c7,0,14.2-9.3,19.3-20.2c-1.6,4.5-3.1,11.3-3.1,13.8
	c0,3.9,2,6.4,5.8,6.4c4.6,0,8.2-3.7,13.6-11.7L476.2,339L476.2,339z M446.2,345.1c-2.6,0-3.8-2.7-3.8-6.8c0-14.5,8.4-30.9,18-30.9
	c2.7,0,5.2,1.7,6.1,4.2C461.2,332.2,452.4,345.1,446.2,345.1L446.2,345.1z"/>
<path d="M514.6,345.4c-0.8,0-1.2-0.4-1.2-1.3c0.1-1.3,0.4-2.5,0.8-3.7l6.7-25.3c0.3-1.3,0.5-2.7,0.5-4c0-4-1.5-6.4-5.8-6.4
	c-8.2,0-17.7,11.6-22.9,21.4l5.7-21.4h-1.3l-14.8,3.7l-0.2,1.3l5,2.9l-9.5,38.3h9.3l3.1-12.4c3.8-15.3,15.5-27.6,20.4-27.6
	c1.1,0,1.5,0.6,1.5,1.8c-0.1,0.9-0.3,1.9-0.5,2.8l-6,22.5c-0.7,2.4-1.1,4.9-1.2,7.4c0,3.8,2.1,6.4,5.9,6.4c4.7,0,8.2-3.7,13.6-11.7
	l-1.5-1.1C518.5,343.6,516.3,345.4,514.6,345.4L514.6,345.4z"/>
<path d="M429.1,298.4c3.4,0,6.1-2.8,6.1-6.2c0-3.1-2.5-5.5-5.5-5.5c-0.1,0-0.1,0-0.2,0c-3.4,0-6.1,2.7-6.1,6.1c0,0.1,0,0.1,0,0.2
	c0,3.1,2.5,5.5,5.5,5.5C429,298.4,429.1,298.4,429.1,298.4z"/>
<path d="M422.8,345.4c-0.8,0-1.2-0.4-1.2-1.3c0.1-1.3,0.4-2.5,0.8-3.7l8.8-35.7h-1.3l-14.8,3.7l-0.3,1.3l5,2.9l-6.3,25.4
	c-0.7,2.4-1.1,4.9-1.1,7.4c0,3.8,2,6.4,5.8,6.4c4.6,0,8.2-3.7,13.6-11.7l-1.5-1.1C426.6,343.6,424.4,345.4,422.8,345.4L422.8,345.4z
	"/>
<path class="st0" d="M141.4,312.5l-23.9-21.6c-3.1-2.8-1.1-7.3-1.1-7.3l-0.5-0.4l-5,6.3c-2.8,3.5-2.4,8.6,1,11.6l24,21.6
	c3.1,2.8,1.1,7.3,1.1,7.3l0.5,0.4l5-6.3C145.3,320.5,144.8,315.5,141.4,312.5L141.4,312.5z"/>
<path class="st0" d="M130.4,326.3l-23.9-21.6c-3.1-2.8-1.1-7.3-1.1-7.3l-0.5-0.4l-5,6.3c-2.8,3.5-2.4,8.6,1,11.6l23.9,21.6
	c3.1,2.8,1.1,7.3,1.1,7.3l0.5,0.4l5-6.3C134.2,334.4,133.7,329.3,130.4,326.3z"/>
<path class="st0" d="M119.3,340.1l-23.9-21.5c-3.1-2.8-1.1-7.3-1.1-7.3l-0.5-0.4l-5,6.3c-2.8,3.5-2.4,8.6,1,11.6l23.9,21.6
	c3.1,2.8,1.1,7.3,1.1,7.3l0.5,0.4l5-6.3C123.1,348.2,122.7,343.1,119.3,340.1L119.3,340.1z"/>
<path d="M534.5,351h36.4v-11.1h-22.2v-15.2h16.8v-10.3h-16.8v-13.3h21.1V290h-35.2V351z M571.6,351H586l9.8-22.3l9.9,22.3h15.9
	l-15.4-31.8l13.6-29.2h-14.3l-8.4,19.8l-8.6-19.8h-15.9l14.4,29.6L571.6,351L571.6,351z M623.1,351h14.2v-22.8h5.7
	c13.3,0,20.7-5.7,20.7-17.6v-2.6c0-11.9-6.8-18.1-21.1-18.1h-19.5V351z M637.3,318.4v-17.6h4.7c5.3,0,7.9,2,7.9,7.5v2.3
	c0,5.3-2.6,7.8-7.9,7.8L637.3,318.4L637.3,318.4z M666.4,351h14.2v-24h4.3l10.7,24h14.9l-12.3-26.5c5.6-2.1,9.6-6.3,9.6-14.8v-2.2
	c0-11.8-7.4-17.5-21.5-17.5h-20L666.4,351L666.4,351z M680.5,317.6v-16.7h5.3c5.4,0,8.2,2,8.2,7.1v2c0,5.4-2.7,7.6-8.2,7.6
	L680.5,317.6z M712.5,351h36.4v-11.1h-22.3v-15.2h16.8v-10.3h-16.8v-13.3h21.1V290h-35.2L712.5,351z M772.3,351.9
	c13.1,0,20.8-7.3,20.8-18.7c0-12.6-7.6-16.5-18.8-19.7c-7.2-2.1-9.1-3.8-9.1-8c0-3.7,2.2-5.9,6.3-5.9s6.7,2,7.1,7.2h13.3
	c-0.6-12.1-7.9-17.7-20.3-17.7s-20,7-20,17.4c0,11.2,5.7,15.8,17.9,19.4c7,2,9.8,3.6,9.8,8.6c0,4.4-2.5,6.8-7,6.8
	c-6,0-8-2.9-8.3-8.8h-13.6C750.7,345.5,758.2,351.9,772.3,351.9L772.3,351.9z M816.3,351.9c13.1,0,20.8-7.3,20.8-18.7
	c0-12.6-7.6-16.5-18.8-19.7c-7.2-2.1-9.1-3.8-9.1-8c0-3.7,2.2-5.9,6.3-5.9s6.7,2,7.1,7.2h13.3c-0.6-12.1-7.9-17.7-20.3-17.7
	s-20,7-20,17.4c0,11.2,5.7,15.8,17.9,19.4c7,2,9.8,3.6,9.8,8.6c0,4.4-2.6,6.8-7,6.8c-6,0-8-2.9-8.3-8.8h-13.7
	C794.6,345.5,802.2,351.9,816.3,351.9L816.3,351.9z"/>
</svg>
